<mxfile host="app.diagrams.net" agent="Mozilla/5.0 (Windows NT 10.0; Win64; x64) AppleWebKit/537.36 (KHTML, like Gecko) Chrome/127.0.0.0 Safari/537.36" version="24.7.7">
  <diagram name="Página-1" id="NwF5F8V8GjNvSW7FwAPb">
    <mxGraphModel dx="988" dy="355" grid="1" gridSize="10" guides="1" tooltips="1" connect="1" arrows="1" fold="1" page="1" pageScale="1" pageWidth="827" pageHeight="1169" math="0" shadow="0">
      <root>
        <mxCell id="0" />
        <mxCell id="1" parent="0" />
        <mxCell id="D-pmZTJ-Wg12eX-d8iog-1" value="&lt;font style=&quot;&quot; face=&quot;Architects Daughter&quot; data-font-src=&quot;https://fonts.googleapis.com/css?family=Architects+Daughter&quot;&gt;&lt;b&gt;Server Side&lt;/b&gt;&lt;/font&gt;" style="rounded=0;whiteSpace=wrap;html=1;sketch=1;curveFitting=1;jiggle=2;" vertex="1" parent="1">
          <mxGeometry x="40" y="50" width="320" height="20" as="geometry" />
        </mxCell>
        <mxCell id="D-pmZTJ-Wg12eX-d8iog-2" value="&lt;font style=&quot;&quot; face=&quot;Architects Daughter&quot; data-font-src=&quot;https://fonts.googleapis.com/css?family=Architects+Daughter&quot;&gt;&lt;b&gt;Client Side&lt;/b&gt;&lt;/font&gt;" style="rounded=0;whiteSpace=wrap;html=1;sketch=1;curveFitting=1;jiggle=2;" vertex="1" parent="1">
          <mxGeometry x="440" y="50" width="320" height="20" as="geometry" />
        </mxCell>
        <mxCell id="D-pmZTJ-Wg12eX-d8iog-3" value="" style="endArrow=none;html=1;rounded=0;sketch=1;curveFitting=1;jiggle=2;" edge="1" parent="1">
          <mxGeometry width="50" height="50" relative="1" as="geometry">
            <mxPoint x="400" y="640" as="sourcePoint" />
            <mxPoint x="400" y="80" as="targetPoint" />
          </mxGeometry>
        </mxCell>
        <mxCell id="D-pmZTJ-Wg12eX-d8iog-4" value="Novo fluxo de autenticação" style="text;html=1;align=center;verticalAlign=middle;resizable=0;points=[];autosize=1;strokeColor=none;fillColor=none;" vertex="1" parent="1">
          <mxGeometry x="310" y="10" width="170" height="30" as="geometry" />
        </mxCell>
      </root>
    </mxGraphModel>
  </diagram>
</mxfile>
